<svg width="1554" height="738" viewBox="0 0 1554 738" fill="none" xmlns="http://www.w3.org/2000/svg">
<path d="M-440 314.196L-74.5229 496.201L429.988 267.227L1327.74 578.397L1591.54 513.032L1797.06 378.778L2063 232V396.392V1371H-440V314.196Z" fill="#F5F5F5"/>
<path opacity="0.18" d="M1622.81 310.865V862.474H-77.5801V414.225C40.5268 411.435 289.76 406.918 379.569 415.82C499.138 427.776 949.246 575.111 1372.52 386.725C1473.22 342.086 1555.72 319.368 1622.81 310.865Z" fill="#EDF6E7"/>
<path d="M430 268L699.928 455.774L731.615 408.83L1328 579L430 268Z" fill="#F5F5F5"/>
<path d="M545.795 620L430 268L699.928 455.733L731.615 408.8L1328 578.933L846.824 508.533L731.615 578.933L600.172 526.133L545.795 620Z" fill="#FCFFFA"/>
<path d="M206.743 513.861C211.431 513.861 230.186 507.21 254.802 497.428C256.755 496.645 293.093 400 293.093 400L261.249 496.45L272.189 491.363L287.036 450.083L275.315 491.559L282.543 488.037L292.702 453.605L283.91 487.842L429.65 422.694V455.366V519.535L456.024 566.488L485.719 619.31L516 673.307L406.598 566.488L389.015 490.58H361.469V464.365L260.076 525.991L166.303 619.506L60.8076 649.243L-200 705L168.061 461.43L201.273 496.645L206.743 513.861Z" fill="#FCFFFA"/>
<path d="M507.773 549.471H502.061L507.773 497.393L513.486 549.471H507.773Z" fill="#EDF6E7"/>
<path d="M479.475 534.061H473.763L479.475 481.982L485.188 534.061H479.475Z" fill="#EDF6E7"/>
<path d="M523.848 541.102H518.136L523.848 478.129L529.561 541.102H523.848Z" fill="#EDF6E7"/>
<path d="M546.7 561.694H540.987L546.7 509.615L552.412 561.694H546.7Z" fill="#EDF6E7"/>
<path d="M535.274 550.401H529.561L535.274 498.323L540.987 550.401H535.274Z" fill="#EDF6E7"/>
<path d="M572.34 551.596H566.627L572.34 480.254L578.053 551.596H572.34Z" fill="#EDF6E7"/>
<path d="M589.744 565.946H584.031L589.744 513.867L595.589 565.946H589.744Z" fill="#EDF6E7"/>
<path d="M1090.87 564.748H1084.49L1090.87 512.669L1097.11 564.748H1090.87Z" fill="#EDF6E7"/>
<path d="M1078.25 564.748H1071.87L1078.25 501.377L1084.49 564.748H1078.25Z" fill="#EDF6E7"/>
<path d="M1103.36 560.099H1097.11L1103.36 486.631L1109.73 560.099H1103.36Z" fill="#EDF6E7"/>
<path d="M1122.22 571.391H1115.98L1122.22 519.312L1128.6 571.391H1122.22Z" fill="#EDF6E7"/>
<path d="M1109.73 560.098H1103.36L1109.73 508.02L1115.98 560.098H1109.73Z" fill="#EDF6E7"/>
<path d="M1134.84 564.749H1128.6L1134.84 493.273L1141.09 564.749H1134.84Z" fill="#EDF6E7"/>
<path d="M1134.84 567.937H1128.6L1134.84 515.859L1141.09 567.937H1134.84Z" fill="#EDF6E7"/>
<path d="M1522.38 360.155H1516.13L1522.38 308.076L1528.62 360.155H1522.38Z" fill="#EDF6E7"/>
<path d="M1509.76 360.155H1503.51L1509.76 296.784L1516.13 360.155H1509.76Z" fill="#EDF6E7"/>
<path d="M1535 355.505H1528.62L1535 282.037L1541.24 355.505H1535Z" fill="#EDF6E7"/>
<path d="M1553.86 366.797H1547.49L1553.86 314.719L1560.11 366.797H1553.86Z" fill="#EDF6E7"/>
<path d="M1541.24 355.505H1535L1541.24 303.426L1547.49 355.505H1541.24Z" fill="#EDF6E7"/>
<path d="M0.537574 405.059H-5.70654L0.537574 352.98L6.91455 405.059H0.537574Z" fill="#EDF6E7"/>
<path d="M13.1587 410.373H6.91455L13.1587 327.074L19.4028 410.373H13.1587Z" fill="#EDF6E7"/>
<path d="M32.0239 411.702H25.7798L32.0239 359.623L38.268 411.702H32.0239Z" fill="#EDF6E7"/>
<path d="M19.4028 410.373H13.1587L19.4028 348.33L25.7798 410.373H19.4028Z" fill="#EDF6E7"/>
<path d="M44.645 415.156H38.2681L44.645 333.716L50.8892 415.156H44.645Z" fill="#EDF6E7"/>
<path d="M44.645 413.296H38.2681L44.645 356.302L50.8892 413.296H44.645Z" fill="#EDF6E7"/>
<path d="M85.4314 428.043H79.1873L85.4314 395.361L91.6755 428.043H85.4314Z" fill="#067C4F"/>
<path d="M72.8103 422.993H66.5662L72.8103 390.312L79.1873 422.993H72.8103Z" fill="#067C4F"/>
<path d="M1419.68 406.653H1413.44L1419.68 354.707L1426.06 406.653H1419.68Z" fill="#EDF6E7"/>
<path d="M1407.19 406.653H1400.82L1407.19 343.415L1413.44 406.653H1407.19Z" fill="#EDF6E7"/>
<path d="M1432.3 402.004H1426.06L1432.3 328.668L1438.55 402.004H1432.3Z" fill="#EDF6E7"/>
<path d="M1451.17 413.296H1444.92L1451.17 361.35L1457.41 413.296H1451.17Z" fill="#EDF6E7"/>
<path d="M1438.55 402.003H1432.3L1438.55 350.057L1444.92 402.003H1438.55Z" fill="#EDF6E7"/>
<path d="M1463.79 406.653H1457.41L1463.79 335.311L1470.03 406.653H1463.79Z" fill="#EDF6E7"/>
<path d="M1463.79 409.842H1457.41L1463.79 357.896L1470.03 409.842H1463.79Z" fill="#EDF6E7"/>
<path d="M1623.08 310.733L1624.28 862.475H-77.5801V390.446C9.83762 403.2 206.328 436.944 394.05 502.973C645.144 591.453 1035.73 579.496 1123.42 551.597C1197.02 528.215 1383.41 400.542 1623.08 310.733Z" fill="#E6EEE6"/>
<path opacity="0.36" d="M1070.67 567.141L882.686 580.958H996.94L896.768 586.671H1003.05L949.91 594.509L1045.56 591.586L1146.53 546.416L1070.67 567.141Z" fill="#EDF6E7"/>
<path d="M1641.39 427.597V905.87H-59V447.259C72.1265 488.311 240.851 544.508 301.033 579.183L258.653 536.67C258.653 536.67 575.907 662.748 635.692 670.719C695.476 678.69 870.843 674.704 962.512 670.719C1054.18 666.733 1209.75 564.037 1209.75 564.037C1209.75 564.037 1472.67 427.597 1592.24 427.597H1641.39Z" fill="#EDF6E7"/>
<path d="M1641.66 414.445L1641.53 906.004H-59V447.26L133.638 567.227L305.019 666.867L532.199 698.752H1046.34L1155.28 644.813L1259.04 647.072L1165.38 639.898L1172.42 636.444L1306.74 643.219L1181.45 632.06L1196.47 624.62H1287.47L1203.91 620.9L1408.9 519.533C1408.9 519.533 1488.61 471.705 1548.4 475.691L1512.66 519.267C1516.51 514.883 1574.57 449.652 1641.66 414.445Z" fill="#E6EEE6"/>
<path d="M1622.81 740.781V862.475H1106.41C1131.79 843.477 1153.44 830.723 1166.06 830.723C1186.79 830.723 1220.53 823.948 1257.07 813.851C1285.63 806.012 1315.92 796.181 1343.02 786.084C1343.82 785.818 1360.16 750.214 1360.16 750.214L1348.21 784.224C1348.21 784.224 1349.27 783.826 1351.26 783.029C1351.66 782.896 1392.58 713.945 1392.98 713.812C1393.24 713.679 1358.97 781.301 1359.23 781.169C1370.26 776.652 1390.05 767.086 1401.08 761.639C1404.27 760.045 1454.75 673.292 1454.75 673.292L1408.52 760.045L1411.05 759.381L1464.05 686.843L1413.57 759.115C1413.3 758.849 1561.17 742.11 1622.81 740.781Z" fill="#95A568"/>
<path d="M1244.85 845.821V850.475H-78.7261V595.874C-7.57848 602.492 100.797 612.317 237.715 624.002C382.596 636.308 692.729 707.456 934.196 766.814C1080.21 802.698 1201.1 834.239 1244.85 845.821Z" fill="#E6EEE6"/>
<path opacity="0.67" d="M1151.98 850.474H-78.7258V618.831C-57.94 626.38 -34.2586 631.344 -7.99188 631.344C107.623 631.344 227.581 658.128 262.741 659.162C297.901 660.196 318.48 678.707 436.37 689.151C554.26 699.596 643.195 705.801 672.15 714.074C701.106 722.347 790.764 759.575 830.784 774.053C845.262 779.327 881.767 790.702 926.027 803.215C936.989 806.317 948.468 809.523 960.153 812.626C1031.51 831.86 1112.27 850.474 1151.98 850.474Z" fill="#EDF6E7"/>
<path d="M1068.22 850.475H-78.7258V697.528V624.726C23.0318 644.374 250.228 688.221 313.413 700.114C334.82 704.147 361.5 707.663 389.421 710.558C390.869 710.765 312.276 733.619 312.276 733.619C312.276 733.619 396.867 711.282 398.315 711.489C409.38 712.626 442.678 715.625 431.613 714.591C424.168 713.971 287.457 740.755 287.457 740.755C287.457 740.755 439.266 715.212 440.714 715.315C444.436 715.625 448.159 715.936 451.779 716.246C453.02 716.349 335.44 732.688 335.44 732.688C335.44 732.688 475.667 718.004 477.218 718.211C530.475 722.347 556.845 723.071 556.845 723.071L583.009 725.967L344.747 772.502L590.971 726.897L599.141 727.828L473.599 761.127L608.034 728.759L615.894 729.586L558.397 755.956L623.65 730.413L630.268 731.137L494.695 792.15L636.886 731.861L662.326 734.653L1068.22 850.475Z" fill="#D9E1D9"/>
<path opacity="0.29" d="M1571.27 13.5396C1566.35 4.37265 1546.42 13.2738 1546.42 13.2738C1546.42 13.2738 1561.57 12.4767 1557.45 21.5108C1553.33 30.6777 1540.98 21.5108 1540.98 21.5108C1540.98 21.5108 1520.38 6.36545 1500.32 6.76401C1480.39 7.29542 1481.06 12.6096 1481.06 12.6096C1481.06 12.6096 1470.56 2.37984 1452.23 1.44986C1433.9 0.519889 1439.08 12.6096 1439.08 12.6096C1439.08 12.6096 1433.1 4.63835 1410.38 1.44986C1387.66 -1.73862 1390.32 8.49111 1390.32 8.49111C1382.08 5.43548 1373.18 9.28824 1370.39 15.9309C1367.07 13.141 1362.15 10.8825 1355.51 12.6096C1348.2 14.3367 1347.28 17.7909 1347.94 20.5808C1345.42 18.0566 1340.63 15.6652 1331.73 16.8609C1325.89 17.658 1323.1 19.2522 1322.03 20.9793C1320.44 19.6508 1318.05 18.3223 1314.46 16.8609C1299.58 10.8825 1292.67 30.412 1309.68 37.0546C1326.68 43.6973 1344.09 37.1875 1371.99 35.9918C1399.89 34.6633 1404.27 41.0403 1427.78 48.4801C1451.3 55.9199 1468.7 44.0959 1495.81 35.9918C1522.91 27.8878 1545.23 30.6777 1550.01 31.342C1567.81 33.7333 1576.31 22.5736 1571.27 13.5396Z" fill="white"/>
<path d="M93.8692 622.968H79.2881V672.502H93.8692V622.968Z" fill="#C3CCBF"/>
<path d="M139.474 624.726L79.9083 623.279L57.4678 622.761L33.5796 622.244L39.1638 580.156L66.4647 544.168L76.9093 530.414C76.3922 530.828 72.4626 534.241 67.0851 538.894C59.7429 545.202 49.8153 553.786 41.7491 560.507L54.1586 466.299L76.1854 432.069L55.8132 453.786L71.4285 335.482L86.63 316.661L72.3592 328.244L83.4243 244.687L95.9371 329.588L98.8327 349.443L102.762 376.33L97.0747 373.642L89.5256 370.125L86.5266 368.678L89.5256 370.746L96.9713 376.123L103.486 380.777L121.687 504.458L89.4222 484.396L83.6311 480.777L89.3188 486.361L124.169 521.211L139.474 624.726Z" fill="#C3CCBF"/>
<path opacity="0.56" d="M102.866 376.33L97.1782 373.641L98.8328 349.443L102.866 376.33Z" fill="#C3CCBF"/>
<path opacity="0.56" d="M121.79 504.561L89.5256 484.499L96.9713 376.227L103.486 380.88L121.79 504.561Z" fill="#C3CCBF"/>
<path opacity="0.56" d="M139.474 624.726L79.8052 623.382L89.3191 486.464L124.169 521.314L139.474 624.726Z" fill="#C3CCBF"/>
<path opacity="0.28" d="M39.0606 580.259L66.3614 544.272C62.6386 575.399 59.6396 602.39 57.3645 622.865L33.4763 622.348L39.0606 580.259Z" fill="#EDF6E7"/>
<path opacity="0.28" d="M95.9371 329.588C93.7655 343.135 91.6972 356.682 89.629 370.125C89.629 370.332 89.5256 370.539 89.5256 370.849C80.5287 430.828 72.8762 489.877 66.9817 538.998C59.6395 545.306 49.7119 553.889 41.6458 560.611L54.0552 466.402L76.082 432.173L55.7098 453.889L71.325 335.586L86.5266 316.765L72.3592 328.244L83.4243 244.687L95.9371 329.588Z" fill="#EDF6E7"/>
<path opacity="0.15" d="M-84 717.694L79.2878 672.503H93.869L-81.5181 786.463L-84 717.694Z" fill="#46542D"/>
<path d="M170.187 607.56H155.605V680.983H170.187V607.56Z" fill="#C3CCBF"/>
<path d="M225.305 606.112L192.937 607.043L177.322 607.456L119.722 609.007L92.3174 609.731L103.072 548.304L130.58 511.18L151.883 482.431L131.614 503.217L106.485 529.173L127.374 410.042C133.889 403.527 141.231 396.289 147.953 389.67C158.915 378.812 168.015 369.815 168.532 369.298L148.78 384.603L129.236 399.701L150.642 277.778L166.464 266.299L151.573 272.711L167.601 181.708L175.668 136.104L184.044 215.214L196.04 328.45L189.111 327.002L182.183 325.555L189.318 329.071L196.557 332.69L207.105 432.793L193.972 426.175L174.737 416.454L194.282 434.034L208.553 446.857L225.305 606.112Z" fill="#D9E1D9"/>
<path d="M177.322 607.457L119.722 609.008L92.3174 609.732L103.072 548.305L130.58 511.18L151.883 482.431L131.614 503.217L106.485 529.173L127.374 410.043C133.889 403.528 141.231 396.289 147.953 389.67C158.915 378.812 168.015 369.815 168.532 369.298L148.78 384.603L129.236 399.701L150.642 277.778L166.464 266.3L151.573 272.711L167.601 181.708C171.841 307.044 176.598 515.73 177.322 607.457Z" fill="#D9E1D9"/>
<path d="M195.936 328.45L189.008 327.002C183.01 224.211 175.564 136 175.564 136L183.941 215.11L195.936 328.45Z" fill="#EDF6E7"/>
<path d="M193.868 426.071C192.627 393.806 190.973 360.818 189.111 329.07L196.35 332.69L206.898 432.793L193.868 426.071Z" fill="#EDF6E7"/>
<path d="M225.306 606.111L192.938 607.042C197.177 568.469 196.66 503.527 194.075 433.93L208.346 446.753L225.306 606.111Z" fill="#EDF6E7"/>
<path opacity="0.15" d="M-81.5183 786.463L155.606 680.983H170.187L-78.7262 850.475L-81.5183 786.463Z" fill="#46542D"/>
<path d="M303.175 644.271H288.594V717.693H303.175V644.271Z" fill="#C3CCBF"/>
<path d="M348.987 659.162L326.34 658.231L242.679 654.922L248.263 612.833L286.009 563.092C285.388 563.609 265.016 581.499 250.849 593.288L263.258 499.08L285.285 464.851L264.913 486.567L280.631 368.264L285.699 362.059L295.833 349.443L284.871 358.336L281.666 360.921L283.113 350.27L292.731 277.364L312.172 409.111L295.936 401.459L312.896 413.662L331.097 537.342L317.55 528.966L293.041 513.661L319.101 539.618L333.579 554.095L348.987 659.162Z" fill="#D9E1D9"/>
<path d="M330.993 537.239L317.446 528.863C309.483 474.675 297.591 415.626 285.698 362.059C285.388 360.818 285.181 359.577 284.871 358.336C284.251 355.647 283.63 352.959 283.01 350.27L292.627 277.364L312.069 409.111L295.833 401.459L312.792 413.662L330.993 537.239Z" fill="#C3CCBF"/>
<path d="M326.339 658.335C328.614 627.518 325.409 585.636 318.997 539.618L333.475 554.095L348.987 659.266L326.339 658.335Z" fill="#C3CCBF"/>
<path opacity="0.15" d="M-8.09546 850.475L288.594 717.694H303.175L86.6301 850.475H-8.09546Z" fill="#46542D"/>
<path d="M1380.47 469.18H1369.97V544.774H1380.47V469.18Z" fill="#C3CCBF"/>
<path d="M1423.91 473.033L1375.15 477.683L1326.4 482.333C1326.8 472.901 1327.06 463.335 1327.46 453.504L1375.15 424.143L1327.73 443.407C1328.39 421.619 1328.79 398.901 1329.19 376.183C1329.19 374.589 1329.19 373.127 1329.32 371.533L1330.12 370.603L1375.15 315.336C1374.49 315.735 1354.16 328.887 1334.24 340.18C1332.77 340.977 1331.18 341.907 1329.72 342.704C1330.25 300.191 1330.38 258.608 1330.38 222.737L1344.33 197.229L1347.39 191.649L1344.2 194.838L1330.52 208.256C1330.38 151.926 1329.98 113 1329.98 113C1361.34 162.687 1382.2 221.541 1396.15 277.074L1372.76 278.137L1370.9 278.27L1361.47 278.669L1371.83 283.717L1373.83 284.647L1401.06 297.932C1410.49 339.781 1416.07 378.707 1419.26 409.264L1384.99 398.635L1384.32 398.37L1375.29 395.58L1384.32 403.019L1385.12 403.684L1421.65 433.842C1423.65 458.287 1423.91 473.033 1423.91 473.033Z" fill="#D9E1D9"/>
<path d="M1421.65 433.974L1384.32 403.152L1375.29 395.713L1419.26 409.264C1415.94 378.707 1410.36 339.781 1401.06 297.932L1371.83 283.717L1361.47 278.669L1372.76 278.137L1396.15 277.074C1382.2 221.541 1361.34 162.687 1329.98 113V113.133C1330.65 115.524 1340.48 151.395 1344.2 194.838L1347.39 191.649L1344.33 197.229C1345.26 209.319 1345.79 221.94 1345.4 234.561C1344.73 256.748 1340.08 297.534 1334.37 340.18C1354.3 328.887 1374.49 315.735 1375.29 315.336L1330.25 370.603C1329.98 372.463 1329.72 374.323 1329.45 376.183C1329.05 398.901 1328.52 421.619 1327.99 443.407L1375.42 424.143L1327.73 453.504C1327.46 463.335 1327.06 473.033 1326.66 482.333L1375.42 477.683L1424.18 473.033C1423.91 473.033 1423.65 458.287 1421.65 433.974Z" fill="#C3CCBF"/>
<path opacity="0.15" d="M1369.97 544.775L1584.93 637.905L1641.39 624.354L1380.47 544.775H1369.97Z" fill="#46542D"/>
<path d="M1416.98 595.47C1416.98 595.47 1510.45 583.887 1627.65 569.957L1592.24 849.237L862.206 756.665C898.02 753.038 928.822 750.917 948.43 751.529C997.385 753.049 1114.47 721.026 1209.57 692.374C1277.93 671.848 1334.83 652.949 1347.06 649.412C1376.24 641.059 1416.98 595.47 1416.98 595.47Z" fill="#EDF6E7"/>
<path d="M1623.71 599.991L1592.1 849.221L1036.71 778.793C1080.8 760.548 1126.79 745.354 1164.1 741.515C1174.01 740.494 1183.83 739.062 1193.28 737.447C1285.06 721.231 1354.4 677.126 1354.4 677.126C1354.4 677.126 1451.5 625.292 1466.26 627.164C1473.64 628.1 1549.73 614.179 1623.71 599.991Z" fill="#D9E1D9"/>
</svg>
