<svg width="24" height="24" fill="none" xmlns="http://www.w3.org/2000/svg"><path d="M20.088 4.412c0-.887-.741-1.61-1.653-1.61-.911 0-1.653.723-1.653 1.61 0 .888.742 1.61 1.653 1.61.912 0 1.653-.722 1.653-1.61zm-1.653.48a.487.487 0 01-.493-.48c0-.264.221-.48.493-.48s.493.216.493.48c0 .265-.221.48-.493.48z" fill="#306669"/><path d="M23.966 2.54a.584.584 0 00-.742-.34l-.607.21A4.613 4.613 0 0018.514 0c-1.64.013-3.156.887-3.96 2.281-.897 1.558-1.908 2.933-3.007 4.088-3.237 3.406-7.87 8.169-8.03 8.333L.33 17.852a1.065 1.065 0 00-.11 1.422c.333.445.918.584 1.424.338 2.056-1 4.48-1.087 6.647-.238a10.31 10.31 0 003.366.702l1.21 3.538a.58.58 0 00.734.357.562.562 0 00.367-.714l-1.096-3.202c.308-.023.614-.06.916-.11l1.255 3.669a.58.58 0 00.734.357.562.562 0 00.367-.715l-1.22-3.566a10.178 10.178 0 004.343-2.527c1.924-1.885 2.975-4.377 2.959-7.019a9.65 9.65 0 00-.372-2.593 4.397 4.397 0 001.278-3.167 4.317 4.317 0 00-.114-.914l.596-.208a.56.56 0 00.35-.722zm-1.993 1.863a3.294 3.294 0 01-1.158 2.557.555.555 0 00-.169.594c.273.837.415 1.71.42 2.597.015 2.339-.915 4.546-2.62 6.216-.438.43-.914.808-1.419 1.136a7.64 7.64 0 01-.383-2.399c0-1.733.569-3.377 1.644-4.752a.555.555 0 00-.11-.791.59.59 0 00-.813.107 8.749 8.749 0 00-1.881 5.436c0 1.023.174 2.02.517 2.972a9.105 9.105 0 01-3.922.88 9.152 9.152 0 01-3.354-.63 9.597 9.597 0 00-3.5-.662c-1.36 0-2.713.291-3.955.87l3.077-3.043.008-.008c.047-.049 4.76-4.893 8.044-8.346 1.16-1.22 2.226-2.668 3.167-4.303a3.447 3.447 0 012.957-1.705 3.45 3.45 0 012.99 1.667l-.174.06a.56.56 0 00-.35.723.58.58 0 00.741.34l.186-.064c.034.178.054.361.057.548z" fill="#306669"/><path d="M14.589 9.84h-.002c-.32 0-.579.252-.58.563v.062a4.746 4.746 0 01-1.447 3.327 5.001 5.001 0 01-3.406 1.431 5.08 5.08 0 01-1.51-.192l4.849-5.197a.554.554 0 00-.04-.798.591.591 0 00-.82.038l-5.416 5.807a.554.554 0 00.179.89 6.2 6.2 0 002.783.581 6.17 6.17 0 004.205-1.764 5.855 5.855 0 001.784-4.182.573.573 0 00-.58-.566zM19.215 7.889a9.286 9.286 0 00-.552.432.554.554 0 00-.058.796.587.587 0 00.818.056c.156-.131.319-.258.484-.378a.555.555 0 00.12-.79.59.59 0 00-.812-.116z" fill="#306669"/></svg>